<?xml version="1.0" encoding="UTF-8" standalone="no"?>
<!DOCTYPE svg PUBLIC "-//W3C//DTD SVG 1.1//EN" "http://www.w3.org/Graphics/SVG/1.1/DTD/svg11.dtd">
<!-- Generated by graphviz version 2.40.1 (20161225.0304)
 -->
<!-- Title: %0 Pages: 1 -->
<svg width="455pt" height="310pt" viewBox="0.00 0.00 455.20 310.40" xmlns="http://www.w3.org/2000/svg" xmlns:xlink="http://www.w3.org/1999/xlink">
<g id="graph0" class="graph" transform="scale(1 1) rotate(0) translate(4 306.4)">
<title>%0</title>
<polygon fill="#ffffff" stroke="transparent" points="-4,4 -4,-306.4 451.1992,-306.4 451.1992,4 -4,4"/>
<!-- 0 -->
<g id="node1" class="node">
<title>0</title>
<ellipse fill="none" stroke="#000000" cx="176" cy="-18" rx="27" ry="18"/>
<text text-anchor="middle" x="176" y="-13.8" font-family="Times,serif" font-size="14.00" fill="#000000">5</text>
</g>
<!-- 1 -->
<g id="node2" class="node">
<title>1</title>
<ellipse fill="none" stroke="#000000" cx="164" cy="-195.6" rx="27" ry="18"/>
<text text-anchor="middle" x="164" y="-191.4" font-family="Times,serif" font-size="14.00" fill="#000000">2</text>
</g>
<!-- 1&#45;&gt;0 -->
<g id="edge4" class="edge">
<title>1-&gt;0</title>
<path fill="none" stroke="#000000" d="M164.5042,-177.4405C165.167,-156.1749 166.5226,-119.8981 168.8008,-88.8 169.8304,-74.7452 171.3717,-59.1595 172.7644,-46.1974"/>
<polygon fill="#000000" stroke="#000000" points="176.2697,-46.3403 173.8847,-36.0174 169.3117,-45.5745 176.2697,-46.3403"/>
<text text-anchor="middle" x="227.0996" y="-102.6" font-family="Times,serif" font-size="14.00" fill="#000000">ProviderToCustomer</text>
</g>
<!-- 2 -->
<g id="node3" class="node">
<title>2</title>
<ellipse fill="none" stroke="#000000" cx="323" cy="-106.8" rx="27" ry="18"/>
<text text-anchor="middle" x="323" y="-102.6" font-family="Times,serif" font-size="14.00" fill="#000000">3</text>
</g>
<!-- 1&#45;&gt;2 -->
<g id="edge5" class="edge">
<title>1-&gt;2</title>
<path fill="none" stroke="#000000" d="M181.673,-181.6999C196.5971,-170.3545 218.8153,-154.3654 239.7026,-142.8 257.5759,-132.9035 263.2468,-132.9065 282,-124.8 284.997,-123.5045 288.1142,-122.1496 291.2314,-120.7896"/>
<polygon fill="#000000" stroke="#000000" points="292.7058,-123.9649 300.4633,-116.7489 289.899,-117.5522 292.7058,-123.9649"/>
<text text-anchor="middle" x="271.6487" y="-147" font-family="Times,serif" font-size="14.00" fill="#000000">PearToPear</text>
</g>
<!-- 3 -->
<g id="node4" class="node">
<title>3</title>
<ellipse fill="none" stroke="#000000" cx="27" cy="-106.8" rx="27" ry="18"/>
<text text-anchor="middle" x="27" y="-102.6" font-family="Times,serif" font-size="14.00" fill="#000000">4</text>
</g>
<!-- 1&#45;&gt;3 -->
<g id="edge3" class="edge">
<title>1-&gt;3</title>
<path fill="none" stroke="#000000" d="M137.2066,-192.3438C101.4797,-187.3924 41.1739,-176.6974 27.8008,-159.6 22.42,-152.7207 20.933,-143.6496 21.187,-134.9706"/>
<polygon fill="#000000" stroke="#000000" points="24.6964,-135.0525 22.2155,-124.7523 17.7316,-134.3515 24.6964,-135.0525"/>
<text text-anchor="middle" x="87.0996" y="-147" font-family="Times,serif" font-size="14.00" fill="#000000">ProviderToCustomer</text>
</g>
<!-- 2&#45;&gt;0 -->
<g id="edge6" class="edge">
<title>2-&gt;0</title>
<path fill="none" stroke="#000000" d="M300.7365,-96.1355C294.7397,-93.5097 288.1957,-90.8627 282,-88.8 248.5727,-77.6714 232.8423,-92.1285 204.8008,-70.8 196.2887,-64.3256 189.9776,-54.5802 185.4689,-45.2176"/>
<polygon fill="#000000" stroke="#000000" points="188.5667,-43.561 181.4061,-35.7523 182.1342,-46.3221 188.5667,-43.561"/>
<text text-anchor="middle" x="263.0996" y="-58.2" font-family="Times,serif" font-size="14.00" fill="#000000">ProviderToCustomer</text>
</g>
<!-- 4 -->
<g id="node5" class="node">
<title>4</title>
<ellipse fill="none" stroke="#000000" cx="334" cy="-18" rx="27" ry="18"/>
<text text-anchor="middle" x="334" y="-13.8" font-family="Times,serif" font-size="14.00" fill="#000000">6</text>
</g>
<!-- 2&#45;&gt;4 -->
<g id="edge7" class="edge">
<title>2-&gt;4</title>
<path fill="none" stroke="#000000" d="M325.226,-88.83C326.7468,-76.553 328.7927,-60.0372 330.5263,-46.0421"/>
<polygon fill="#000000" stroke="#000000" points="334.0213,-46.2977 331.7773,-35.9433 327.0744,-45.4371 334.0213,-46.2977"/>
<text text-anchor="middle" x="388.0996" y="-58.2" font-family="Times,serif" font-size="14.00" fill="#000000">ProviderToCustomer</text>
</g>
<!-- 5 -->
<g id="node6" class="node">
<title>5</title>
<ellipse fill="none" stroke="#000000" cx="245" cy="-284.4" rx="27" ry="18"/>
<text text-anchor="middle" x="245" y="-280.2" font-family="Times,serif" font-size="14.00" fill="#000000">1</text>
</g>
<!-- 5&#45;&gt;1 -->
<g id="edge1" class="edge">
<title>5-&gt;1</title>
<path fill="none" stroke="#000000" d="M222.2161,-274.4505C210.3843,-268.3456 196.4288,-259.5508 186.8008,-248.4 180.5425,-241.1519 175.7733,-231.924 172.2557,-223.2171"/>
<polygon fill="#000000" stroke="#000000" points="175.5152,-221.939 168.8035,-213.7413 168.9381,-224.3353 175.5152,-221.939"/>
<text text-anchor="middle" x="245.0996" y="-235.8" font-family="Times,serif" font-size="14.00" fill="#000000">ProviderToCustomer</text>
</g>
<!-- 5&#45;&gt;2 -->
<g id="edge2" class="edge">
<title>5-&gt;2</title>
<path fill="none" stroke="#000000" d="M268.9267,-276.0297C281.7333,-270.279 296.5658,-261.3182 305,-248.4 327.2012,-214.3958 328.3548,-165.9021 326.3099,-135.4035"/>
<polygon fill="#000000" stroke="#000000" points="329.7647,-134.7157 325.4449,-125.0416 322.789,-135.2981 329.7647,-134.7157"/>
<text text-anchor="middle" x="385.0996" y="-191.4" font-family="Times,serif" font-size="14.00" fill="#000000">ProviderToCustomer</text>
</g>
</g>
</svg>